<svg width="318" height="315" viewBox="0 0 318 315" fill="none" xmlns="http://www.w3.org/2000/svg">
<path d="M1.84033 92C1.84033 41.1898 43.0301 0 93.8403 0H225.34C276.151 0 317.34 41.1898 317.34 92V222C317.34 272.81 276.151 314 225.34 314H93.8403C43.0301 314 1.84033 272.81 1.84033 222V92Z" fill="#55DBCB"/>
<path d="M1.55486 121.555C1.81125 86.2863 32.2873 58.8451 67.3901 62.2762L262.954 81.3916C293.565 84.3836 316.956 110.038 317.117 140.794L317.529 219.827C317.701 252.836 291.177 279.784 258.17 280.136L61.4644 282.235C27.9082 282.592 0.582183 255.359 0.826126 221.802L1.55486 121.555Z" fill="#9C82F7"/>
<path d="M26.1435 204.42L151.692 185.276L165.259 274.247L39.7104 293.392L26.1435 204.42Z" fill="white"/>
<path d="M86.7737 314.601C86.7737 314.487 85.4248 314.287 83.7667 314.202C78.5115 313.889 71.5701 312.436 64.9378 310.271C29.8093 298.764 4.57294 267.119 1.00388 230.034C-0.0640232 218.755 4.1514 205.197 12.0764 194.572C14.2684 191.61 19.9171 185.885 22.8398 183.692C28.4041 179.476 35.9638 175.83 42.5961 174.121C46.8677 173.039 47.8232 172.897 57.9683 171.871C62.7739 171.387 68.5912 170.817 70.8956 170.589C76.9096 169.991 85.481 169.137 93.94 168.311C97.9587 167.912 103.776 167.342 106.867 167.029C109.959 166.716 117.097 166.032 122.745 165.463C128.394 164.921 133.537 164.409 134.183 164.323C134.858 164.266 141.94 163.554 149.921 162.757C157.93 161.988 167.71 161.019 171.644 160.62C175.579 160.222 182.099 159.566 186.117 159.196C190.136 158.797 194.632 158.342 196.094 158.199C197.555 158.057 201.995 157.63 205.93 157.231C219.756 155.864 228.103 155.038 242.323 153.585C262.388 151.591 266.154 151.534 274.051 153.101C285.601 155.436 297.573 162.643 305.105 171.786C310.753 178.593 314.8 186.512 316.767 194.629L317.498 197.592V216.761C317.498 228.581 317.386 236.414 317.217 237.155C317.048 237.838 316.599 239.918 316.205 241.798C315.784 243.677 314.828 247.152 314.098 249.545C303.503 282.813 275.597 307.395 241.536 313.461C239.794 313.775 237.096 314.088 235.494 314.202C233.92 314.287 232.543 314.487 232.459 314.629C232.262 314.943 86.7737 314.943 86.7737 314.601ZM106.333 251.567C140.872 216.504 138.371 219.381 138.314 215.166C138.286 211.805 136.797 209.213 133.958 207.618C132.581 206.849 132.216 206.763 129.771 206.763C127.523 206.763 126.905 206.877 125.837 207.447C124.965 207.903 116.872 215.906 99.8416 233.139L75.1111 258.175L64.1791 247.095C56.7037 239.519 52.7693 235.731 51.8138 235.189C50.5492 234.477 50.0995 234.392 47.8513 234.392C45.6593 234.392 45.1253 234.506 43.8888 235.161C40.9099 236.756 39.2237 239.576 39.2237 242.994C39.2237 246.811 38.5774 246.042 57.7716 265.524C67.2142 275.123 75.0549 282.956 75.1673 282.956C75.3078 282.956 89.3311 268.828 106.333 251.567Z" fill="black"/>
</svg>
